HIERARCHY
ROOT Joint1
{
	OFFSET 0.000000 0.000000 0.000000
	CHANNELS 6 Xposition Yposition Zposition Xrotation Yrotation Zrotation
	JOINT Joint2
	{
		OFFSET -0.000000 0.000000 1.456275
		CHANNELS 6 Xposition Yposition Zposition Xrotation Yrotation Zrotation
		JOINT Joint3
		{
			OFFSET -0.000000 0.000002 1.471446
			CHANNELS 6 Xposition Yposition Zposition Xrotation Yrotation Zrotation
			JOINT Joint4
			{
				OFFSET 0.625745 0.000000 0.917755
				CHANNELS 6 Xposition Yposition Zposition Xrotation Yrotation Zrotation
				JOINT Joint5
				{
					OFFSET -0.629534 0.000001 0.940221
					CHANNELS 6 Xposition Yposition Zposition Xrotation Yrotation Zrotation
					JOINT Joint6
					{
						OFFSET -0.000001 0.113772 1.960660
						CHANNELS 6 Xposition Yposition Zposition Xrotation Yrotation Zrotation
						JOINT Joint7
						{
							OFFSET -0.669733 -0.113771 0.388340
							CHANNELS 6 Xposition Yposition Zposition Xrotation Yrotation Zrotation
							End Site
							{
								OFFSET 0.005509 0.005509 0.438980
							}
						}
					}
				}
			}
		}
	}
}
MOTION
Frames: 22
Frame Time: 0.041667
0.000000 0.000000 0.000000 -0.000000 1.019410 42.319637 -0.000000 -0.000000 1.456275 0.000002 -47.445615 0.000000 -0.000000 0.000002 1.471446 -0.000002 -1.133464 -27.350514 0.625745 0.000000 0.917755 0.000004 148.839398 -0.000001 -0.629534 0.000001 0.940221 -0.000000 1.709737 29.285495 -0.000002 0.113772 1.960661 -88.303909 76.724840 -0.000010 -0.669733 -0.113771 0.388340 -0.914529 3.544605 146.834696 
0.000000 0.000000 0.000000 -0.000000 1.019410 40.973909 -0.000000 0.000000 1.456275 -0.000004 -47.367188 -0.000002 -0.000000 0.000002 1.471446 -0.000000 -1.133462 -26.482086 0.625745 0.000001 0.917755 0.000002 148.399971 -0.000003 -0.629533 0.000001 0.940221 -0.000001 1.709736 28.354169 -0.000001 0.113772 1.960661 -88.303882 77.146140 -0.000014 -0.669733 -0.113771 0.388340 -0.907964 3.545956 146.457301 
0.000000 0.000000 0.000000 -0.000000 1.019410 39.561050 -0.000000 0.000000 1.456275 0.000002 -47.284860 0.000002 -0.000000 0.000002 1.471445 0.000002 -1.133462 -25.570340 0.625745 0.000000 0.917755 0.000005 147.938633 -0.000000 -0.629534 0.000001 0.940221 0.000003 1.709737 27.376385 -0.000001 0.113772 1.960661 -88.303903 77.588449 -0.000011 -0.669733 -0.113771 0.388341 -0.901057 3.547331 146.061055 
0.000000 0.000000 0.000000 -0.000000 1.019410 38.116280 -0.000000 0.000000 1.456275 0.000002 -47.200664 0.000002 -0.000000 0.000002 1.471446 0.000002 -1.133463 -24.637995 0.625745 0.000000 0.917755 0.000004 147.466871 -0.000002 -0.629534 0.000001 0.940221 0.000001 1.709736 26.376512 -0.000001 0.113772 1.960660 -88.303896 78.040758 -0.000003 -0.669733 -0.113771 0.388341 -0.893988 3.548684 145.655847 
0.000000 0.000000 0.000000 -0.000000 1.019410 36.673977 -0.000000 0.000000 1.456275 -0.000003 -47.116615 -0.000003 -0.000000 0.000002 1.471445 -0.000001 -1.133462 -23.707252 0.625745 0.000001 0.917755 0.000003 146.995916 -0.000001 -0.629534 0.000001 0.940221 -0.000000 1.709736 25.378348 -0.000001 0.113772 1.960661 -88.303909 78.492288 0.000005 -0.669733 -0.113771 0.388340 -0.886922 3.549980 145.251349 
0.000000 0.000000 0.000000 -0.000000 1.019410 35.265240 -0.000000 -0.000000 1.456275 0.000002 -47.034527 0.000002 -0.000000 0.000002 1.471446 -0.000003 -1.133460 -22.798157 0.625744 0.000000 0.917755 -0.000000 146.535930 -0.000003 -0.629533 0.000001 0.940221 -0.000001 1.709737 24.403414 -0.000001 0.113772 1.960660 -88.303903 78.933313 -0.000012 -0.669733 -0.113771 0.388340 -0.880013 3.551208 144.856237 
0.000000 0.000000 0.000000 -0.000000 1.019410 33.920335 -0.000000 0.000000 1.456275 0.000002 -46.956144 0.000000 -0.000000 0.000002 1.471446 0.000001 -1.133460 -21.930257 0.625744 0.000000 0.917755 0.000005 146.096776 -0.000002 -0.629534 0.000001 0.940221 -0.000001 1.709736 23.472657 -0.000002 0.113773 1.960661 -88.303903 79.354347 0.000001 -0.669734 -0.113771 0.388340 -0.873410 3.552334 144.479032 
0.000000 0.000000 0.000000 -0.000000 1.019410 32.669536 -0.000000 -0.000000 1.456275 -0.000001 -46.883255 -0.000002 -0.000000 0.000002 1.471446 -0.000001 -1.133460 -21.123082 0.625744 0.000000 0.917755 0.000005 145.688345 0.000000 -0.629533 0.000001 0.940221 0.000000 1.709736 22.607021 -0.000001 0.113772 1.960660 -88.303909 79.745928 -0.000004 -0.669733 -0.113771 0.388340 -0.867266 3.553336 144.128220 
0.000000 0.000000 0.000000 -0.000000 1.019410 31.529786 -0.000000 -0.000000 1.456275 -0.000005 -46.816835 -0.000002 -0.000000 0.000002 1.471446 -0.000002 -1.133461 -20.387584 0.625744 0.000000 0.917755 0.000006 145.316181 -0.000001 -0.629534 0.000001 0.940221 -0.000000 1.709736 21.818249 -0.000001 0.113772 1.960660 -88.303896 80.102744 0.000006 -0.669733 -0.113771 0.388340 -0.861653 3.554220 143.808567 
0.000000 0.000000 0.000000 -0.000000 1.019410 30.464829 -0.000000 0.000000 1.456275 -0.000002 -46.754776 0.000001 -0.000000 0.000002 1.471445 -0.000002 -1.133463 -19.700347 0.625744 0.000000 0.917755 0.000005 144.968443 -0.000002 -0.629534 0.000001 0.940221 -0.000001 1.709737 21.081230 -0.000001 0.113772 1.960660 -88.303923 80.436133 -0.000009 -0.669733 -0.113771 0.388340 -0.856411 3.555018 143.509883 
0.000000 0.000000 0.000000 -0.000000 1.019410 29.425066 -0.000000 0.000000 1.456275 0.000001 -46.694178 -0.000003 -0.000000 0.000002 1.471446 -0.000001 -1.133461 -19.029361 0.625745 0.000000 0.917755 0.000002 144.628928 -0.000001 -0.629533 0.000001 0.940221 0.000001 1.709735 20.361643 -0.000001 0.113772 1.960660 -88.303923 80.761653 -0.000004 -0.669733 -0.113771 0.388340 -0.851285 3.555767 143.218262 
0.000000 0.000000 0.000000 -0.000000 1.019410 28.360907 -0.000000 -0.000000 1.456275 -0.000003 -46.632174 0.000001 -0.000000 0.000002 1.471446 -0.000002 -1.133461 -18.342637 0.625745 0.000000 0.917755 0.000003 144.281435 -0.000000 -0.629533 0.000001 0.940221 -0.000001 1.709737 19.625186 -0.000001 0.113772 1.960661 -88.303903 81.094795 0.000001 -0.669733 -0.113771 0.388340 -0.846036 3.556507 142.919823 
0.000000 0.000000 0.000000 -0.000000 1.019410 27.222776 -0.000000 0.000000 1.456275 -0.000001 -46.565849 0.000003 -0.000000 0.000002 1.471446 -0.000003 -1.133462 -17.608175 0.625744 0.000000 0.917755 0.000005 143.909805 -0.000001 -0.629534 0.000001 0.940221 -0.000000 1.709736 18.837522 -0.000001 0.113772 1.960660 -88.303903 81.451106 -0.000007 -0.669733 -0.113771 0.388339 -0.840419 3.557275 142.600608 
0.000000 0.000000 0.000000 -0.000000 1.019410 25.974156 -0.000000 0.000000 1.456275 0.000001 -46.493084 -0.000001 -0.000000 0.000002 1.471446 -0.000001 -1.133463 -16.802410 0.625745 0.000000 0.917755 0.000003 143.502083 -0.000000 -0.629533 0.000001 0.940220 0.000001 1.709737 17.973400 -0.000001 0.113772 1.960661 -88.303923 81.841997 -0.000002 -0.669733 -0.113771 0.388340 -0.834248 3.558075 142.250424 
0.000000 0.000000 0.000000 -0.000000 1.019410 24.630876 -0.000000 0.000000 1.456275 0.000002 -46.414803 0.000004 -0.000000 0.000002 1.471446 -0.000001 -1.133464 -15.935571 0.625745 0.000000 0.917755 0.000005 143.063462 -0.000001 -0.629534 0.000001 0.940221 0.000001 1.709737 17.043769 -0.000001 0.113772 1.960660 -88.303896 82.262532 -0.000005 -0.669733 -0.113771 0.388340 -0.827609 3.558900 141.873670 
0.000000 0.000000 0.000000 -0.000000 1.019410 23.221861 -0.000000 -0.000000 1.456275 0.000001 -46.332694 -0.000004 -0.000000 0.000002 1.471446 -0.000000 -1.133461 -15.026297 0.625745 0.000000 0.917756 0.000002 142.603381 -0.000002 -0.629534 0.000001 0.940221 -0.000001 1.709738 16.068640 -0.000001 0.113772 1.960661 -88.303903 82.703646 -0.000019 -0.669733 -0.113771 0.388340 -0.820638 3.559709 141.478476 
0.000000 0.000000 0.000000 -0.000000 1.019410 21.776018 -0.000000 0.000000 1.456275 -0.000001 -46.248430 -0.000000 -0.000000 0.000002 1.471446 -0.000004 -1.133461 -14.093265 0.625745 0.000000 0.917755 0.000003 142.131264 -0.000001 -0.629534 0.000001 0.940221 0.000001 1.709737 15.068026 -0.000001 0.113772 1.960661 -88.303916 83.156290 -0.000027 -0.669733 -0.113771 0.388340 -0.813476 3.560498 141.072967 
0.000000 0.000000 0.000000 -0.000000 1.019410 20.324242 -0.000000 0.000000 1.456275 -0.000000 -46.163831 0.000001 -0.000000 0.000002 1.471446 -0.000001 -1.133463 -13.156403 0.625745 0.000000 0.917755 0.000005 141.657222 0.000000 -0.629534 0.000001 0.940221 -0.000000 1.709737 14.063310 -0.000001 0.113772 1.960660 -88.303923 83.610777 -0.000010 -0.669733 -0.113771 0.388339 -0.806280 3.561235 140.665793 
0.000000 0.000000 0.000000 -0.000000 1.019410 18.905337 -0.000000 0.000000 1.456275 -0.000002 -46.081152 -0.000001 -0.000000 0.000002 1.471446 -0.000002 -1.133463 -12.240753 0.625745 0.000000 0.917755 0.000004 141.193889 0.000000 -0.629534 0.000001 0.940221 0.000000 1.709736 13.081336 -0.000001 0.113772 1.960661 -88.303909 84.054985 -0.000015 -0.669733 -0.113771 0.388340 -0.799244 3.561910 140.267825 
0.000000 0.000000 0.000000 -0.000000 1.019410 17.560082 -0.000000 0.000000 1.456275 0.000000 -46.002748 0.000003 -0.000000 0.000002 1.471446 0.000001 -1.133456 -11.372627 0.625744 0.000000 0.917755 0.000003 140.754653 -0.000000 -0.629534 0.000001 0.940221 -0.000000 1.709736 12.150335 -0.000001 0.113773 1.960660 -88.303896 84.476135 -0.000031 -0.669733 -0.113771 0.388340 -0.792569 3.562501 139.890525 
0.000000 0.000000 0.000000 -0.000000 1.019410 16.329261 -0.000000 0.000000 1.456275 0.000000 -45.931028 0.000002 -0.000000 0.000002 1.471446 0.000001 -1.133458 -10.578355 0.625744 0.000000 0.917755 0.000002 140.352738 -0.000002 -0.629534 0.000001 0.940221 -0.000000 1.709737 11.298535 -0.000001 0.113772 1.960660 -88.303916 84.861453 -0.000029 -0.669733 -0.113771 0.388339 -0.786459 3.563003 139.545327 
0.000000 0.000000 0.000000 -0.000000 1.019410 15.240934 -0.000000 -0.000000 1.456275 -0.000000 -45.867603 -0.000001 -0.000000 0.000002 1.471446 -0.000001 -1.133461 -9.876033 0.625745 0.000000 0.917755 0.000004 139.997363 -0.000000 -0.629534 0.000001 0.940221 0.000001 1.709737 10.545343 -0.000000 0.113772 1.960661 -88.303903 85.202177 -0.000044 -0.669733 -0.113771 0.388340 -0.781052 3.563417 139.240086 
